<?xml version="1.0" encoding="UTF-8"?>
<svg version="1.1" xmlns="http://www.w3.org/2000/svg" width="500" height="500">
<path d="M0 0 C0.7344635 -0.03489532 1.468927 -0.06979065 2.22564697 -0.10574341 C27.35779633 -1.06695001 27.35779633 -1.06695001 34.85742188 4.83764648 C41.34438414 11.50305569 42.84885479 18.60970134 42.80908203 27.73754883 C42.73260107 29.7556128 42.59560448 31.77124368 42.4453125 33.78515625 C42.7753125 33.45515625 43.1053125 33.12515625 43.4453125 32.78515625 C49.7547846 26.9675516 54.12300567 24.31769085 62.88671875 24.5390625 C69.49397558 25.17456965 73.49110714 27.44558692 77.875 32.30859375 C79.65809757 33.98523773 81.34737589 34.83872192 83.5703125 35.84765625 C88.1177223 37.94779589 90.27446437 40.67762962 92.6953125 45.03515625 C94.51919647 51.72273081 93.83733052 56.73851542 90.4453125 62.78515625 C90.7753125 63.44515625 91.1053125 64.10515625 91.4453125 64.78515625 C91.5703125 67.34765625 91.5703125 67.34765625 91.4453125 69.78515625 C90.4453125 70.78515625 90.4453125 70.78515625 87.1328125 70.91015625 C83.4453125 70.78515625 83.4453125 70.78515625 81.578125 70.26953125 C78.86537655 69.65344918 76.40983161 69.80321071 73.6328125 69.91015625 C68.29338876 69.9426345 65.04055767 69.50479114 60.4453125 66.78515625 C59.6821875 65.87765625 58.9190625 64.97015625 58.1328125 64.03515625 C55.71918788 61.54058322 55.71918788 61.54058322 53.01953125 61.72265625 C51.25635488 61.92678665 49.49799854 62.18012345 47.75 62.48828125 C45.4453125 62.78515625 45.4453125 62.78515625 42.4453125 61.78515625 C42.40792969 62.40003906 42.37054688 63.01492188 42.33203125 63.6484375 C42.26628906 64.45667969 42.20054687 65.26492188 42.1328125 66.09765625 C42.04580078 67.29841797 42.04580078 67.29841797 41.95703125 68.5234375 C41.33668659 71.26526617 40.64116712 72.06266428 38.4453125 73.78515625 C36.25796509 74.17956543 36.25796509 74.17956543 33.68603516 74.20507812 C32.23905746 74.22894592 32.23905746 74.22894592 30.7628479 74.2532959 C29.72220184 74.25349731 28.68155579 74.25369873 27.609375 74.25390625 C26.53787201 74.26151978 25.46636902 74.2691333 24.36239624 74.27697754 C22.09448579 74.28778861 19.82652551 74.29062758 17.55859375 74.28613281 C14.0902986 74.28516185 10.6242248 74.32674625 7.15625 74.37109375 C4.95312962 74.37630165 2.75000154 74.37898893 0.546875 74.37890625 C-0.4897226 74.39530151 -1.52632019 74.41169678 -2.59432983 74.42858887 C-9.79954778 74.35953572 -9.79954778 74.35953572 -13.70214844 71.39111328 C-18.02153921 65.31504883 -16.63424232 57.25228314 -16.1015625 50.1328125 C-15.5546875 47.78515625 -15.5546875 47.78515625 -14.04356384 46.39196777 C-12.17519411 44.37560286 -12.18213212 43.43970011 -12.18579102 40.72851562 C-12.17890762 39.91757446 -12.17202423 39.1066333 -12.16493225 38.27111816 C-12.17109055 37.39918823 -12.17724884 36.5272583 -12.18359375 35.62890625 C-12.16621547 33.78385227 -12.14863105 31.93880023 -12.13085938 30.09375 C-12.12077049 27.18372096 -12.11719413 24.27381537 -12.11889648 21.36376953 C-12.11533505 18.55593837 -12.08802769 15.74906723 -12.05859375 12.94140625 C-12.06677628 12.06947632 -12.0749588 11.19754639 -12.08338928 10.29919434 C-12.01008899 4.37603023 -12.01008899 4.37603023 -9.99536133 1.76196289 C-6.68602532 0.43750022 -3.52140118 0.14623154 0 0 Z M-4.5546875 24.78515625 C-4.5546875 25.11515625 -4.5546875 25.44515625 -4.5546875 25.78515625 C3.0353125 25.78515625 10.6253125 25.78515625 18.4453125 25.78515625 C18.4453125 25.45515625 18.4453125 25.12515625 18.4453125 24.78515625 C10.8553125 24.78515625 3.2653125 24.78515625 -4.5546875 24.78515625 Z M46.6328125 33.84765625 C43.14208813 38.53520041 42.61216228 42.01719319 43.4453125 47.78515625 C44.73444072 50.76159902 46.26421842 53.37673687 48.4453125 55.78515625 C49.4353125 56.11515625 50.4253125 56.44515625 51.4453125 56.78515625 C52.05890625 57.12804687 52.6725 57.4709375 53.3046875 57.82421875 C58.04351062 59.95150066 63.88927251 59.53119777 68.80078125 58.09765625 C73.4813623 55.99007754 76.34737819 53.59292238 78.4453125 48.78515625 C79.35931209 43.93278443 79.57192646 39.73312844 77.046875 35.3671875 C73.2332444 30.7958268 69.81739021 28.16310382 63.76171875 27.484375 C56.48486381 27.45340966 51.57524766 28.12115205 46.6328125 33.84765625 Z M81.4453125 38.78515625 C82.1053125 39.11515625 82.7653125 39.44515625 83.4453125 39.78515625 C82.4553125 40.28015625 82.4553125 40.28015625 81.4453125 40.78515625 C80.90396319 42.70561793 80.90396319 42.70561793 80.5703125 44.97265625 C79.38354908 50.72389436 77.27134046 54.32433388 72.6328125 58.03515625 C69.19132984 59.92459771 66.24462551 60.87332113 62.4453125 61.78515625 C64.14354966 65.34150883 64.14354966 65.34150883 67.1953125 67.59765625 C73.12438427 68.09174556 80.00394427 68.50584036 85.4453125 65.78515625 C89.23078638 60.18923834 92.35334388 54.64933675 91.16015625 47.78515625 C89.85732812 44.1400852 87.46230546 41.18674269 84.4453125 38.78515625 C83.4553125 38.78515625 82.4653125 38.78515625 81.4453125 38.78515625 Z M41.4453125 50.78515625 C42.4453125 52.78515625 42.4453125 52.78515625 42.4453125 52.78515625 Z M42.4453125 52.78515625 C41.14897629 53.8516074 41.14897629 53.8516074 41.3828125 56.34765625 C41.4034375 57.15203125 41.4240625 57.95640625 41.4453125 58.78515625 C42.1053125 57.79515625 42.7653125 56.80515625 43.4453125 55.78515625 C44.1053125 56.11515625 44.7653125 56.44515625 45.4453125 56.78515625 C44.7853125 55.46515625 44.1253125 54.14515625 43.4453125 52.78515625 C43.1153125 52.78515625 42.7853125 52.78515625 42.4453125 52.78515625 Z M2.4453125 53.78515625 C2.4453125 55.76515625 2.4453125 57.74515625 2.4453125 59.78515625 C2.7753125 59.78515625 3.1053125 59.78515625 3.4453125 59.78515625 C3.4453125 57.80515625 3.4453125 55.82515625 3.4453125 53.78515625 C3.1153125 53.78515625 2.7853125 53.78515625 2.4453125 53.78515625 Z M10.4453125 53.78515625 C10.4453125 55.43515625 10.4453125 57.08515625 10.4453125 58.78515625 C10.7753125 58.78515625 11.1053125 58.78515625 11.4453125 58.78515625 C11.4453125 57.13515625 11.4453125 55.48515625 11.4453125 53.78515625 C11.1153125 53.78515625 10.7853125 53.78515625 10.4453125 53.78515625 Z M7.4453125 54.78515625 C8.4453125 57.78515625 8.4453125 57.78515625 8.4453125 57.78515625 Z M43.4453125 56.78515625 C44.4453125 58.78515625 44.4453125 58.78515625 44.4453125 58.78515625 Z " fill="#1E1B1A" transform="translate(193.5546875,235.21484375)"/>
<path d="M0 0 C10.44008211 8.34289246 15.81834931 17.64254794 20 30.1875 C22.20964309 52.39581156 14.19703368 69.23767038 2 87.1875 C6.79887154 96.55672538 17.42602596 100.98620243 27 104.1875 C29.68140855 104.98447421 32.36252393 105.75946423 35.06640625 106.4765625 C37 107.1875 37 107.1875 38 109.1875 C20.55553808 112.69847398 0.86721225 116.47524179 -16 109 C-19.57500764 107.83739589 -20.68679317 108.03422026 -24.12890625 109.71875 C-26.53515297 111.25360733 -28.8485108 112.90969533 -31.171875 114.56640625 C-42.40016316 122.5047478 -55.74822044 126.97871621 -69 130.1875 C-69.64807617 130.35121094 -70.29615234 130.51492188 -70.96386719 130.68359375 C-98.41202793 137.3897572 -131.7753964 134.43847165 -156.42578125 119.8671875 C-172.61816706 109.30159433 -185.62371258 96.60342306 -190 77.1875 C-190.29165854 73.91146138 -190.33385851 70.66266355 -190.3125 67.375 C-190.30512817 66.04214966 -190.30512817 66.04214966 -190.29760742 64.68237305 C-190.18566619 58.43031151 -189.65810584 52.9234126 -187 47.1875 C-186.67128906 46.44886719 -186.34257812 45.71023437 -186.00390625 44.94921875 C-176.03538082 24.97767471 -153.54358111 14.84979721 -133.34375 8.09765625 C-130.40132162 7.13085717 -127.45133499 6.18918435 -124.5 5.25 C-121.33673801 4.22556156 -118.1760753 3.19323175 -115.015625 2.16015625 C-114.24176453 1.90819489 -113.46790405 1.65623352 -112.67059326 1.39663696 C-105.80355427 -0.84984051 -99.02586631 -3.30399906 -92.25 -5.8125 C-61.76454837 -17.01018284 -27.43716353 -20.79673254 0 0 Z M-87.69921875 -3.62109375 C-89.05876175 -3.16462967 -89.05876175 -3.16462967 -90.44577026 -2.69894409 C-93.29818508 -1.73974858 -96.14921331 -0.77652249 -99 0.1875 C-99.90217255 0.49168854 -100.80434509 0.79587708 -101.7338562 1.10928345 C-107.13303075 2.9310615 -112.52541376 4.77153108 -117.91210938 6.62988281 C-119.72280967 7.25235177 -121.53499778 7.87050929 -123.34863281 8.484375 C-148.30591188 16.77927462 -148.30591188 16.77927462 -170 31.1875 C-170.86625 31.785625 -171.7325 32.38375 -172.625 33 C-180.70448241 40.44162854 -186.23374723 51.49347814 -187.203125 62.4921875 C-187.49883635 78.70702671 -182.70817575 92.02370287 -171.52734375 103.78125 C-151.68061076 122.67705761 -125.80257494 129.86142704 -98.875 130.5625 C-81.44435101 130.10324937 -62.98339308 126.79830321 -47.5625 118.5546875 C-45 117.1875 -45 117.1875 -41.5 115.75 C-35.31928334 112.99075149 -29.13267185 109.6209639 -23.77734375 105.4609375 C-22 104.1875 -22 104.1875 -19.75 104.3125 C-16.82978861 105.24165817 -13.99444058 106.30477286 -11.16015625 107.46875 C-5.22160256 109.4446883 0.75400026 109.33992128 6.9375 109.3125 C7.80568359 109.31636719 8.67386719 109.32023437 9.56835938 109.32421875 C14.48604607 109.31678461 19.15215056 109.0185599 24 108.1875 C21.24075815 106.38338033 20.11027897 106.1747755 16.75 106.5625 C15.38875 106.871875 15.38875 106.871875 14 107.1875 C14 106.5275 14 105.8675 14 105.1875 C14.99 104.8575 15.98 104.5275 17 104.1875 C16.40832031 103.87296875 15.81664062 103.5584375 15.20703125 103.234375 C6.29108251 98.4055088 2.17972948 94.50740743 -2 85.1875 C-1.5153125 84.5790625 -1.030625 83.970625 -0.53125 83.34375 C10.66662279 68.70037789 18.92973775 52.0809789 17 33.1875 C14.82430424 20.97459448 8.0392707 10.62031403 -1.60546875 2.83984375 C-28.13615767 -15.46763001 -58.26787965 -13.55653632 -87.69921875 -3.62109375 Z " fill="#0D0D0D" transform="translate(342,201.8125)"/>
<path d="M0 0 C4.75 0.75 4.75 0.75 7 3 C7.06764804 5.57062545 7.03921414 8.06105247 6.9375 10.625 C6.74885535 17.18126903 6.74885535 17.18126903 8.5 23.4375 C10.26418043 27.62742853 10.90542395 31.49951038 10 36 C7.9013685 38.60112074 6.28461125 39.43368772 3 40 C4.051875 40.5259375 4.051875 40.5259375 5.125 41.0625 C9.59841809 44.0771948 13.27792332 47.83376996 15 53 C15.14359334 54.80872376 15.22046121 56.62332577 15.25 58.4375 C15.27578125 59.38496094 15.3015625 60.33242188 15.328125 61.30859375 C14.95241828 64.3902834 14.0484735 65.71972555 12 68 C9.625 67.75 9.625 67.75 7 67 C5.8359375 64.953125 5.8359375 64.953125 5 63 C4.96261719 63.88042969 4.92523438 64.76085937 4.88671875 65.66796875 C4.82097656 66.82941406 4.75523437 67.99085938 4.6875 69.1875 C4.62949219 70.33605469 4.57148438 71.48460937 4.51171875 72.66796875 C3.97117485 76.18769353 3.12745751 78.17027497 1 81 C-1.4375 82.0625 -1.4375 82.0625 -4 82 C-6.3125 80.3125 -6.3125 80.3125 -8 78 C-8 76.68 -8 75.36 -8 74 C-11.96 74 -15.92 74 -20 74 C-20 75.65 -20 77.3 -20 79 C-21.6875 80.875 -21.6875 80.875 -24 82 C-27.37036311 81.75925978 -28.58798021 81.41201979 -31 79 C-31.30059943 76.63490639 -31.49515012 74.25558119 -31.625 71.875 C-31.73714844 69.95300781 -31.73714844 69.95300781 -31.8515625 67.9921875 C-31.90054687 67.00476563 -31.94953125 66.01734375 -32 65 C-32.4434375 65.4846875 -32.886875 65.969375 -33.34375 66.46875 C-35 68 -35 68 -37.5 68.5 C-40 68 -40 68 -41.8125 66.0625 C-43.67992871 61.24649964 -43.90267755 56.80493023 -42.30859375 51.8515625 C-40.06179454 46.9443274 -36.97025798 43.60932543 -33 40 C-33.845625 39.38125 -34.69125 38.7625 -35.5625 38.125 C-38.26008923 34.66655227 -38.31979149 34.1312145 -37.9375 30 C-37.56636363 27.33115418 -37.08570541 25.189334 -35.97265625 22.73046875 C-34.38129949 18.26316604 -34.56722073 13.67906521 -34.43359375 8.97460938 C-34.20166771 3.20166771 -34.20166771 3.20166771 -32 1 C-29.4375 0.8125 -29.4375 0.8125 -27 1 C-26 2 -26 2 -25.5625 5.5 C-25.376875 6.655 -25.19125 7.81 -25 9 C-24.34 9.33 -23.68 9.66 -23 10 C-22.01 9.67 -21.02 9.34 -20 9 C-13.75634501 8.61258706 -7.81685533 8.41473097 -2 11 C-2.04125 9.741875 -2.0825 8.48375 -2.125 7.1875 C-2.2390374 3.70935927 -2.05925681 3.08888522 0 0 Z M-30 4 C-31.23267348 5.00836062 -31.23267348 5.00836062 -31.09765625 7.06640625 C-31.08605469 7.89011719 -31.07445312 8.71382812 -31.0625 9.5625 C-31.05347656 10.38878906 -31.04445313 11.21507812 -31.03515625 12.06640625 C-31.02355469 12.70449219 -31.01195312 13.34257812 -31 14 C-30.34 14 -29.68 14 -29 14 C-29 10.7 -29 7.4 -29 4 C-29.33 4 -29.66 4 -30 4 Z M2 4 C3 8 3 8 3 8 Z M1 9 C1.33 10.65 1.66 12.3 2 14 C2.33 12.68 2.66 11.36 3 10 C2.34 9.67 1.68 9.34 1 9 Z M-28.79296875 17.94140625 C-33.29071704 23.74254002 -34.23415523 27.74118798 -34 35 C-29.64491405 39.35508595 -13.1771634 37.11063543 -7.3125 37.125 C-6.23669678 37.12959229 -5.16089355 37.13418457 -4.05249023 37.13891602 C-2.53570679 37.13589478 -2.53570679 37.13589478 -0.98828125 37.1328125 C-0.07602783 37.13168457 0.83622559 37.13055664 1.77612305 37.12939453 C4.03997207 37.14439098 4.03997207 37.14439098 6 36 C6.50885041 28.59467031 6.50885041 28.59467031 4.375 21.625 C-0.08046431 16.70053945 -4.39738661 12.51849198 -11.25390625 11.74609375 C-18.32860137 11.41126085 -23.87119683 12.61216737 -28.79296875 17.94140625 Z M-25 42 C-28.86990066 47.13971181 -29.42445346 52.69849861 -29 59 C-27.29146102 63.39738721 -24.48981948 66.85916246 -21 70 C-16.75034999 71.86984601 -13.78107309 72.24838738 -9.375 71 C-5.10172331 69.31835279 -2.10159317 67.15086451 0 63 C2.23680143 56.93898967 2.31988343 52.1572055 0.1171875 46.10546875 C-1.37479586 43.29365395 -2.69411749 41.22914765 -5 39 C-8.55304598 38.28217661 -8.55304598 38.28217661 -12.4375 38.5 C-13.73558594 38.5103125 -15.03367187 38.520625 -16.37109375 38.53125 C-20.1680813 39.02171126 -22.03775494 39.61766535 -25 42 Z M3 45 C4.06212329 52.45071559 6.34124111 58.43657756 10 65 C12.33760576 62.66239424 12.34295127 62.06741017 12.4375 58.875 C12.32980512 53.75535113 10.57835007 49.6913506 7 46 C4.91231469 45.24237491 4.91231469 45.24237491 3 45 Z M-37 49 C-40.22802353 53.62683373 -40.14512841 56.89303424 -39.32421875 62.2421875 C-39.21722656 62.82226562 -39.11023438 63.40234375 -39 64 C-38.01 64 -37.02 64 -36 64 C-33.12059087 57.5849443 -31.4535179 52.02952752 -31 45 C-33.38398939 45 -35.38191421 47.53601762 -37 49 Z M-2.625 70.1875 C-5.34391078 72.74676977 -5.34391078 72.74676977 -4.8125 75.8125 C-4.544375 76.534375 -4.27625 77.25625 -4 78 C-2.68 78 -1.36 78 0 78 C1.14352916 75.71294169 1.10334439 74.40735238 1.0625 71.875 C1.041875 70.59625 1.02125 69.3175 1 68 C-0.44146049 67.8933026 -0.44146049 67.8933026 -2.625 70.1875 Z M-28 69 C-27.88637738 70.4800841 -27.75877092 71.95910074 -27.625 73.4375 C-27.55539062 74.26121094 -27.48578125 75.08492188 -27.4140625 75.93359375 C-27.27742188 76.61550781 -27.14078125 77.29742187 -27 78 C-26.34 78.33 -25.68 78.66 -25 79 C-24.34 78.67 -23.68 78.34 -23 78 C-22.61571652 73.7890245 -22.61571652 73.7890245 -24.375 70.125 C-25.94466014 68.81026334 -25.94466014 68.81026334 -28 69 Z " fill="#5D5D5F" transform="translate(330,202)"/>
<path d="M0 0 C5.09031755 -0.04936158 10.18049643 -0.08570105 15.27099609 -0.10986328 C17.00344265 -0.11993376 18.73587216 -0.13359089 20.46826172 -0.15087891 C22.95544639 -0.17508162 25.44240675 -0.18647239 27.9296875 -0.1953125 C29.09538773 -0.21079636 29.09538773 -0.21079636 30.28463745 -0.22659302 C32.19125493 -0.22699271 34.09731036 -0.1223214 36 0 C38.55948999 2.55948999 38.26068731 4.27207195 38.2734375 7.765625 C38.26570313 8.50296875 38.25796875 9.2403125 38.25 10 C38.26160156 11.10601562 38.26160156 11.10601562 38.2734375 12.234375 C38.2533196 17.7466804 38.2533196 17.7466804 36 20 C33.41896694 20.17502995 30.94691837 20.23162279 28.3671875 20.1953125 C27.23943405 20.19106766 27.23943405 20.19106766 26.08889771 20.18673706 C23.68410422 20.17552874 21.27968119 20.15042352 18.875 20.125 C17.24609912 20.11497102 15.61719242 20.10584503 13.98828125 20.09765625 C9.99204444 20.07558735 5.99608506 20.04105351 2 20 C1.67 21.32 1.34 22.64 1 24 C-0.94921875 23.28515625 -0.94921875 23.28515625 -3 22 C-4.89261207 15.93217101 -3.89575125 9.17073086 -3 3 C-2.34 3 -1.68 3 -1 3 C-0.67 2.01 -0.34 1.02 0 0 Z M15 7 C15 8.98 15 10.96 15 13 C15.33 13 15.66 13 16 13 C16 11.02 16 9.04 16 7 C15.67 7 15.34 7 15 7 Z M23 7 C23 8.65 23 10.3 23 12 C23.33 12 23.66 12 24 12 C24 10.35 24 8.7 24 7 C23.67 7 23.34 7 23 7 Z M20 8 C21 11 21 11 21 11 Z " fill="#676767" transform="translate(181,282)"/>
<path d="M0 0 C1.65652455 1.38043713 3.30477281 2.77180759 4.9140625 4.20703125 C6.96009014 6.03222571 6.96009014 6.03222571 9.2109375 7.51171875 C12.43756307 10.01031509 14.61518685 12.08814385 15.44628906 16.21728516 C16.0677166 21.8068851 16.0906085 27.38227315 16 33 C16.33 32.67 16.66 32.34 17 32 C23.3094721 26.18239535 27.67769317 23.5325346 36.44140625 23.75390625 C43.04866308 24.3894134 47.04579464 26.66043067 51.4296875 31.5234375 C53.21278507 33.20008148 54.90206339 34.05356567 57.125 35.0625 C61.6724098 37.16263964 63.82915187 39.89247337 66.25 44.25 C68.07388397 50.93757456 67.39201802 55.95335917 64 62 C64.33 62.66 64.66 63.32 65 64 C65.125 66.5625 65.125 66.5625 65 69 C64 70 64 70 60.6875 70.125 C57 70 57 70 55.1328125 69.484375 C52.42006405 68.86829293 49.96451911 69.01805446 47.1875 69.125 C41.84807626 69.15747825 38.59524517 68.71963489 34 66 C33.236875 65.0925 32.47375 64.185 31.6875 63.25 C29.27387538 60.75542697 29.27387538 60.75542697 26.57421875 60.9375 C24.81104238 61.1416304 23.05268604 61.3949672 21.3046875 61.703125 C19 62 19 62 16 61 C15.96261719 61.61488281 15.92523438 62.22976563 15.88671875 62.86328125 C15.82097656 63.67152344 15.75523437 64.47976563 15.6875 65.3125 C15.62949219 66.11300781 15.57148438 66.91351563 15.51171875 67.73828125 C14.89998154 70.44206631 14.25272384 71.402614 12 73 C9.27492202 73.39078556 6.76878044 73.13616953 4 73 C4.495 72.01 4.495 72.01 5 71 C7.64 71 10.28 71 13 71 C13.0271045 67.95827281 13.04688964 64.91679003 13.0625 61.875 C13.07087891 61.0190625 13.07925781 60.163125 13.08789062 59.28125 C13.10152022 55.73755519 13.07346061 52.42509925 12.46875 48.92578125 C11.8376109 44.98642138 12.14845806 41.27680213 12.4375 37.3125 C12.53699113 35.71105044 12.63465187 34.1094861 12.73046875 32.5078125 C12.7773584 31.73598633 12.82424805 30.96416016 12.87255859 30.16894531 C13.03868261 27.34165455 13.17670934 24.51883393 13.25 21.6875 C13.27578125 20.88699219 13.3015625 20.08648437 13.328125 19.26171875 C12.58606007 14.1467712 9.05724229 10.80452619 5.5 7.3125 C4.7265625 6.54550781 3.953125 5.77851563 3.15625 4.98828125 C0.96496171 2.86379602 0.96496171 2.86379602 -2 1 C-1.34 0.67 -0.68 0.34 0 0 Z M20.1875 33.0625 C16.69677563 37.75004416 16.16684978 41.23203694 17 47 C18.28912822 49.97644277 19.81890592 52.59158062 22 55 C22.99 55.33 23.98 55.66 25 56 C25.61359375 56.34289062 26.2271875 56.68578125 26.859375 57.0390625 C31.59819812 59.16634441 37.44396001 58.74604152 42.35546875 57.3125 C47.0360498 55.20492129 49.90206569 52.80776613 52 48 C52.91399959 43.14762818 53.12661396 38.94797219 50.6015625 34.58203125 C46.7879319 30.01067055 43.37207771 27.37794757 37.31640625 26.69921875 C30.03955131 26.66825341 25.12993516 27.3359958 20.1875 33.0625 Z M55 38 C55.66 38.33 56.32 38.66 57 39 C56.01 39.495 56.01 39.495 55 40 C54.45865069 41.92046168 54.45865069 41.92046168 54.125 44.1875 C52.93823658 49.93873811 50.82602796 53.53917763 46.1875 57.25 C42.74601734 59.13944146 39.79931301 60.08816488 36 61 C37.69823716 64.55635258 37.69823716 64.55635258 40.75 66.8125 C46.67907177 67.30658931 53.55863177 67.72068411 59 65 C62.78547388 59.40408209 65.90803138 53.8641805 64.71484375 47 C63.41201562 43.35492895 61.01699296 40.40158644 58 38 C57.01 38 56.02 38 55 38 Z M15 50 C16 52 16 52 16 52 Z M16 52 C14.70366379 53.06645115 14.70366379 53.06645115 14.9375 55.5625 C14.958125 56.366875 14.97875 57.17125 15 58 C15.66 57.01 16.32 56.02 17 55 C17.66 55.33 18.32 55.66 19 56 C18.34 54.68 17.68 53.36 17 52 C16.67 52 16.34 52 16 52 Z M17 56 C18 58 18 58 18 58 Z " fill="#080707" transform="translate(220,236)"/>
<path d="M0 0 C0.83337891 -0.00257813 1.66675781 -0.00515625 2.52539062 -0.0078125 C7.60538144 0.07250356 11.12544629 0.78726472 15.5625 3.5 C15.5625 4.16 15.5625 4.82 15.5625 5.5 C16.2225 5.5 16.8825 5.5 17.5625 5.5 C17.33292223 6.9409026 17.07793646 8.37777015 16.8125 9.8125 C16.67328125 10.61300781 16.5340625 11.41351563 16.390625 12.23828125 C15.26816549 15.30386643 14.51230166 16.03642713 11.5625 17.5 C8.25750273 18.07900263 4.97403019 18.24036562 1.625 18.375 C0.73103516 18.43429688 -0.16292969 18.49359375 -1.08398438 18.5546875 C-6.04015013 18.79016976 -9.47223219 18.8677617 -13.4375 15.5 C-15.4375 12.5 -15.4375 12.5 -15.375 9.125 C-13.1468292 0.50940625 -7.83522406 -0.26539635 0 0 Z M-8.4375 5.5 C-5.9625 5.995 -5.9625 5.995 -3.4375 6.5 C-3.1075 8.48 -2.7775 10.46 -2.4375 12.5 C-3.4275 12.995 -3.4275 12.995 -4.4375 13.5 C0.34012638 14.51687046 0.34012638 14.51687046 5 13.5625 C5.515625 13.211875 6.03125 12.86125 6.5625 12.5 C5.5725 11.51 4.5825 10.52 3.5625 9.5 C3.8925 8.51 4.2225 7.52 4.5625 6.5 C6.2125 6.5 7.8625 6.5 9.5625 6.5 C9.6875 11.25 9.6875 11.25 8.5625 13.5 C9.8825 13.17 11.2025 12.84 12.5625 12.5 C12.8925 10.85 13.2225 9.2 13.5625 7.5 C10.61702037 4.61719015 9.01210473 3.55602255 4.86328125 3.0390625 C2.88908203 3.08160156 2.88908203 3.08160156 0.875 3.125 C0.19888672 3.12628906 -0.47722656 3.12757813 -1.17382812 3.12890625 C-5.25916968 3.12130217 -5.25916968 3.12130217 -8.4375 5.5 Z M-10.4375 5.5 C-10.4375 7.48 -10.4375 9.46 -10.4375 11.5 C-9.4475 11.995 -9.4475 11.995 -8.4375 12.5 C-8.4375 10.19 -8.4375 7.88 -8.4375 5.5 C-9.0975 5.5 -9.7575 5.5 -10.4375 5.5 Z " fill="#68686B" transform="translate(315.4375,218.5)"/>
<path d="M0 0 C0.33 0.99 0.66 1.98 1 3 C0.67 3.33 0.34 3.66 0 4 C-0.08651611 5.41570123 -0.10704904 6.835595 -0.09765625 8.25390625 C-0.09443359 9.10791016 -0.09121094 9.96191406 -0.08789062 10.84179688 C-0.07951172 11.73962891 -0.07113281 12.63746094 -0.0625 13.5625 C-0.05798828 14.46419922 -0.05347656 15.36589844 -0.04882812 16.29492188 C-0.03700225 18.53001314 -0.0205222 20.76497437 0 23 C0.66 23 1.32 23 2 23 C1.938125 21.576875 1.938125 21.576875 1.875 20.125 C2 17 2 17 4 15 C7.0390625 14.8046875 7.0390625 14.8046875 10.625 14.875 C12.40777344 14.90207031 12.40777344 14.90207031 14.2265625 14.9296875 C15.14179688 14.95289063 16.05703125 14.97609375 17 15 C13.99112219 16.58158962 11.36327963 17.43945339 8 18 C8.33 18.66 8.66 19.32 9 20 C8.67 20.66 8.34 21.32 8 22 C14.93 22 21.86 22 29 22 C29 22.99 29 23.98 29 25 C28.34 25.33 27.68 25.66 27 26 C27 26.66 27 27.32 27 28 C20.07 28 13.14 28 6 28 C6 28.66 6 29.32 6 30 C12.27 30 18.54 30 25 30 C24.67 30.66 24.34 31.32 24 32 C16.08 32.33 8.16 32.66 0 33 C-0.33 34.98 -0.66 36.96 -1 39 C-1.33 39 -1.66 39 -2 39 C-2.04935824 33.76726669 -2.08569949 28.53466824 -2.10986328 23.30175781 C-2.11993431 21.52080933 -2.13359185 19.73987743 -2.15087891 17.95898438 C-2.17507913 15.40230217 -2.18647184 12.84583815 -2.1953125 10.2890625 C-2.20563507 9.49005524 -2.21595764 8.69104797 -2.22659302 7.86782837 C-2.22699226 5.9104278 -2.12241069 3.95356923 -2 2 C-1.34 1.34 -0.68 0.68 0 0 Z M5 23 C5 23.33 5 23.66 5 24 C12.59 24 20.18 24 28 24 C28 23.67 28 23.34 28 23 C20.41 23 12.82 23 5 23 Z " fill="#100D0D" transform="translate(184,237)"/>
<path d="M0 0 C0.66902344 -0.02900391 1.33804687 -0.05800781 2.02734375 -0.08789062 C5.60729658 -0.13360712 7.62401856 0.23584462 10.703125 2.109375 C12.75 4.3125 12.75 4.3125 13.25 7.875 C12.72370293 11.49329239 12.52756735 12.18815188 9.75 14.3125 C6.82742357 14.6106028 4.16654217 14.73132117 1.25 14.6875 C0.09177734 14.70490234 0.09177734 14.70490234 -1.08984375 14.72265625 C-6.78291074 14.69305625 -6.78291074 14.69305625 -8.93945312 12.93603516 C-10.74563907 10.69849109 -11.11336084 9.18192233 -11.25 6.3125 C-8.23747065 0.2874413 -6.43336893 0.09086679 0 0 Z M-7.25 5.3125 C-6.92801034 8.41176819 -6.92801034 8.41176819 -6.25 11.3125 C-2.21733389 12.65672204 1.53005323 12.76953395 5.75 12.3125 C8.2689267 10.99486671 8.2689267 10.99486671 9.75 9.3125 C9.37095792 6.02174004 9.37095792 6.02174004 7.75 3.3125 C5.60692104 3.18712259 3.45921114 3.13675636 1.3125 3.125 C0.13816406 3.11082031 -1.03617187 3.09664062 -2.24609375 3.08203125 C-5.36496902 2.99350744 -5.36496902 2.99350744 -7.25 5.3125 Z " fill="#6B6B6D" transform="translate(315.25,246.6875)"/>
<path d="M0 0 C2.475 0.495 2.475 0.495 5 1 C5.33 1.99 5.66 2.98 6 4 C6.66 4 7.32 4 8 4 C7.77042223 5.4409026 7.51543646 6.87777015 7.25 8.3125 C7.11078125 9.11300781 6.9715625 9.91351563 6.828125 10.73828125 C5.72006807 13.76453106 4.90441615 14.5661743 2 16 C-0.92848918 16.34985386 -3.8062547 16.28269574 -6.75 16.1875 C-7.93916016 16.16719727 -7.93916016 16.16719727 -9.15234375 16.14648438 C-11.10185564 16.11125223 -13.05101626 16.05744821 -15 16 C-14.38125 15.71125 -13.7625 15.4225 -13.125 15.125 C-10.86674235 14.06279958 -10.86674235 14.06279958 -9 12 C-6.875 11.375 -6.875 11.375 -5 11 C-5.66 9.68 -6.32 8.36 -7 7 C-6.34 6.01 -5.68 5.02 -5 4 C-2.4375 3.75 -2.4375 3.75 0 4 C1.65162636 5.65162636 1 7.758552 1 10 C1.33 10.33 1.66 10.66 2 11 C2.85974801 8.70705512 2.85974801 8.70705512 3 6 C1.16641665 3.66545339 1.16641665 3.66545339 -1 2 C-0.67 1.34 -0.34 0.68 0 0 Z " fill="#5B5B5E" transform="translate(325,220)"/>
<path d="M0 0 C1.32 0.66 2.64 1.32 4 2 C4 4.64 4 7.28 4 10 C20.335 10.99 20.335 10.99 37 12 C36.01 12.66 35.02 13.32 34 14 C34 14.99 34 15.98 34 17 C33.34 16.34 32.68 15.68 32 15 C29.51318105 14.77339046 27.17362651 14.67565002 24.6875 14.6875 C23.37136719 14.67074219 22.05523437 14.65398437 20.69921875 14.63671875 C16.87169795 15.01259988 15.07553996 15.78717981 12 18 C11.34 18.33 10.68 18.66 10 19 C10 18.34 10 17.68 10 17 C7.69 17 5.38 17 3 17 C3.33 16.34 3.66 15.68 4 15 C2.7315625 14.071875 2.7315625 14.071875 1.4375 13.125 C-1.33102513 9.57560881 -1.27160876 8.94633782 -0.8125 4.6875 C-0.56775915 3.12070108 -0.30518762 1.5561547 0 0 Z " fill="#4E4F50" transform="translate(293,227)"/>
<path d="M0 0 C-0.28110489 2.79310605 -0.57436052 5.58398875 -0.875 8.375 C-0.99294922 9.56609375 -0.99294922 9.56609375 -1.11328125 10.78125 C-1.7734375 16.7734375 -1.7734375 16.7734375 -4 19 C-4.99 18.34 -5.98 17.68 -7 17 C-6.67 12.71 -6.34 8.42 -6 4 C-6.94875 4.495 -7.8975 4.99 -8.875 5.5 C-12 7 -12 7 -14 7 C-12.71107323 4.12470182 -11.50703617 1.94991702 -9 0 C-5.56954679 -1.05552406 -3.40394081 -0.95397067 0 0 Z " fill="#616264" transform="translate(304,244)"/>
<path d="M0 0 C0.79664063 0.01160156 1.59328125 0.02320313 2.4140625 0.03515625 C3.60128906 0.04869141 3.60128906 0.04869141 4.8125 0.0625 C5.54726562 0.07410156 6.28203125 0.08570313 7.0390625 0.09765625 C8.0290625 0.09765625 9.0190625 0.09765625 10.0390625 0.09765625 C11.70572917 0.09765625 13.37239583 0.09765625 15.0390625 0.09765625 C14.7296875 0.67515625 14.4203125 1.25265625 14.1015625 1.84765625 C12.96163117 4.02720349 12.96163117 4.02720349 12.6015625 6.28515625 C12.323125 7.18234375 12.323125 7.18234375 12.0390625 8.09765625 C6.70259384 9.87647914 2.08647774 9.54488788 -2.9609375 7.09765625 C-2.6309375 6.43765625 -2.3009375 5.77765625 -1.9609375 5.09765625 C-2.28473876 3.76197604 -2.61751301 2.42842614 -2.9609375 1.09765625 C-1.9609375 0.09765625 -1.9609375 0.09765625 0 0 Z M3.0390625 2.09765625 C3.0390625 4.07765625 3.0390625 6.05765625 3.0390625 8.09765625 C3.3690625 8.09765625 3.6990625 8.09765625 4.0390625 8.09765625 C4.0390625 6.11765625 4.0390625 4.13765625 4.0390625 2.09765625 C3.7090625 2.09765625 3.3790625 2.09765625 3.0390625 2.09765625 Z M8.0390625 3.09765625 C9.0390625 6.09765625 9.0390625 6.09765625 9.0390625 6.09765625 Z " fill="#505051" transform="translate(192.9609375,286.90234375)"/>
<path d="M0 0 C0.66 0.33 1.32 0.66 2 1 C2.37890625 3.328125 2.37890625 3.328125 2.5625 6.25 C2.75412356 9.14390677 2.95115418 11.80255694 3.6484375 14.62109375 C4.23927953 18.61912481 2.13382207 20.70227498 0 24 C-0.99 24 -1.98 24 -3 24 C-2.8453125 23.19175781 -2.690625 22.38351563 -2.53125 21.55078125 C-1.79919635 16.65786381 -1.61619045 11.77596495 -1.39453125 6.83789062 C-1.10354983 1.10354983 -1.10354983 1.10354983 0 0 Z " fill="#646466" transform="translate(297,204)"/>
<path d="M0 0 C1.9375 0.375 1.9375 0.375 4 1 C4.33 1.66 4.66 2.32 5 3 C5.639375 3.309375 6.27875 3.61875 6.9375 3.9375 C9 5 9 5 11 8 C9.1875 8.625 9.1875 8.625 7 9 C6.01 8.34 5.02 7.68 4 7 C4.33 9.97 4.66 12.94 5 16 C4.01 16 3.02 16 2 16 C0.5192152 13.0384304 0.64685963 10.16493705 0.4375 6.875 C0.35371094 5.59367187 0.26992188 4.31234375 0.18359375 2.9921875 C0.12300781 2.00476563 0.06242187 1.01734375 0 0 Z " fill="#616162" transform="translate(298,264)"/>
<path d="M0 0 C3.23585361 1.61792681 4.83246068 2.55804109 7.25 5 C8.03117188 5.7734375 8.03117188 5.7734375 8.828125 6.5625 C10 8 10 8 10 10 C6.7 10 3.4 10 0 10 C0 6.7 0 3.4 0 0 Z " fill="#656464" transform="translate(221,240)"/>
<path d="M0 0 C0 0.33 0 0.66 0 1 C-1.65 1 -3.3 1 -5 1 C-4.67 3.31 -4.34 5.62 -4 8 C-5.6875 9.5625 -5.6875 9.5625 -8 11 C-11.37036311 10.75925978 -12.58798021 10.41201979 -15 8 C-14.67 7.01 -14.34 6.02 -14 5 C-13.34 5.66 -12.68 6.32 -12 7 C-9.41645782 7.16687448 -9.41645782 7.16687448 -7 7 C-7.33 4.69 -7.66 2.38 -8 0 C-5.13822943 -1.43088528 -3.06624227 -0.59991697 0 0 Z " fill="#5B5B5C" transform="translate(314,273)"/>
<path d="M0 0 C4.75 0.875 4.75 0.875 7 2 C7 1.34 7 0.68 7 0 C8.32 0 9.64 0 11 0 C11.33 1.32 11.66 2.64 12 4 C10.33524314 4.34274406 8.66804677 4.67364302 7 5 C5.4221875 5.309375 5.4221875 5.309375 3.8125 5.625 C1 6 1 6 -1 5 C-0.67 3.35 -0.34 1.7 0 0 Z " fill="#040404" transform="translate(253,276)"/>
<path d="M0 0 C0.33 0.66 0.66 1.32 1 2 C2.93719378 2.05406122 4.87481921 2.09282025 6.8125 2.125 C7.89144531 2.14820313 8.97039062 2.17140625 10.08203125 2.1953125 C13.19402868 2.23023717 13.19402868 2.23023717 16 0 C17.32 0 18.64 0 20 0 C18.125 3.875 18.125 3.875 17 5 C14.13732433 5.07325168 11.299281 5.09238205 8.4375 5.0625 C7.63119141 5.05798828 6.82488281 5.05347656 5.99414062 5.04882812 C3.99606244 5.03700518 1.99802217 5.01906914 0 5 C-0.5625 3.0625 -0.5625 3.0625 -1 1 C-0.67 0.67 -0.34 0.34 0 0 Z " fill="#5C5C5D" transform="translate(308,256)"/>
<path d="M0 0 C1.66611905 -0.042721 3.33382885 -0.04063832 5 0 C7.04698414 2.04698414 6.70045693 6.30411241 7 9 C6.34 9 5.68 9 5 9 C5.7763932 12.0745356 5.7763932 12.0745356 8 14 C5.525 15.485 5.525 15.485 3 17 C1.91508725 13.29952239 1.99660048 10.03941269 2.16015625 6.21875 C1.97934721 3.71388328 1.24959389 2.15616201 0 0 Z " fill="#545455" transform="translate(298,203)"/>
<path d="M0 0 C0.33 0.66 0.66 1.32 1 2 C5.62 1.67 10.24 1.34 15 1 C15 1.99 15 2.98 15 4 C5.58997722 6.48063781 5.58997722 6.48063781 1 5 C0.67 3.35 0.34 1.7 0 0 Z " fill="#626264" transform="translate(302,210)"/>
<path d="M0 0 C1 3 1 3 -0.125 5.625 C-2 8 -2 8 -4.4375 9.0625 C-7 9 -7 9 -9.375 7.3125 C-11 5 -11 5 -10.75 2.75 C-10.5025 2.1725 -10.255 1.595 -10 1 C-9.38125 1.66 -8.7625 2.32 -8.125 3 C-6.24362573 5.2284549 -6.24362573 5.2284549 -4 5 C-2.61767557 3.37373596 -1.28062485 1.7074998 0 0 Z " fill="#505050" transform="translate(333,275)"/>
<path d="M0 0 C1.67542976 0.28604898 3.34385343 0.61781233 5 1 C6.31626692 4.61973402 7 7.09567131 7 11 C6.01 11 5.02 11 4 11 C1.89229241 8.11165997 1 6.61537605 1 3 C0.34 2.34 -0.32 1.68 -1 1 C-0.67 0.67 -0.34 0.34 0 0 Z " fill="#656568" transform="translate(331,216)"/>
<path d="M0 0 C0.8353125 0.30744141 0.8353125 0.30744141 1.6875 0.62109375 C5.63798544 2.01577527 9.31826762 3.15341748 13.5 3.5625 C14.655 3.706875 15.81 3.85125 17 4 C17.33 4.66 17.66 5.32 18 6 C11.18401613 6.33278764 6.07877934 6.24201565 0 3 C0 2.01 0 1.02 0 0 Z " fill="#0C0C0C" transform="translate(254,299)"/>
<path d="M0 0 C1.65 0.33 3.3 0.66 5 1 C5.33 1.99 5.66 2.98 6 4 C6.66 4 7.32 4 8 4 C7.67 5.98 7.34 7.96 7 10 C3.22471696 8.74157232 2.89332955 7.37506571 1 4 C0.34 3.34 -0.32 2.68 -1 2 C-0.67 1.34 -0.34 0.68 0 0 Z " fill="#59595F" transform="translate(325,220)"/>
<path d="M0 0 C1.31291016 -0.02513672 1.31291016 -0.02513672 2.65234375 -0.05078125 C5.0625 0.3125 5.0625 0.3125 6.8671875 1.6640625 C8.50423321 3.92168762 8.28292739 5.59389556 8.0625 8.3125 C7.0725 8.3125 6.0825 8.3125 5.0625 8.3125 C4.4025 6.6625 3.7425 5.0125 3.0625 3.3125 C-0.2375 2.9825 -3.5375 2.6525 -6.9375 2.3125 C-4.42737037 -0.19762963 -3.46944763 0.01528391 0 0 Z " fill="#636366" transform="translate(319.9375,247.6875)"/>
<path d="M0 0 C0.66 0.33 1.32 0.66 2 1 C2.05437607 2.58294782 2.09296271 4.16644256 2.125 5.75 C2.14820313 6.63171875 2.17140625 7.5134375 2.1953125 8.421875 C1.99139502 11.1135858 1.36551721 12.69904974 0 15 C-0.33 15 -0.66 15 -1 15 C-1.02685412 12.68756208 -1.04632841 10.3750373 -1.0625 8.0625 C-1.07410156 6.77472656 -1.08570313 5.48695313 -1.09765625 4.16015625 C-1 1 -1 1 0 0 Z " fill="#151515" transform="translate(360,237)"/>
<path d="M0 0 C2.12508244 3.18762365 2.5020163 5.26512223 3 9 C3.99 9.33 4.98 9.66 6 10 C6 10.66 6 11.32 6 12 C0.5 10.53333333 0.5 10.53333333 -1.875 8 C-3 6 -3 6 -3 4 C-2.34 3.67 -1.68 3.34 -1 3 C-0.67 2.01 -0.34 1.02 0 0 Z " fill="#58575B" transform="translate(303,225)"/>
<path d="M0 0 C0.33 0 0.66 0 1 0 C1.08126087 2.08268593 1.13930839 4.16628658 1.1875 6.25 C1.22230469 7.41015625 1.25710938 8.5703125 1.29296875 9.765625 C1 13 1 13 -2 17 C-2.33 13.7 -2.66 10.4 -3 7 C-2.34 7 -1.68 7 -1 7 C-0.67 4.69 -0.34 2.38 0 0 Z " fill="#595959" transform="translate(333,262)"/>
<path d="M0 0 C4.57989423 -0.46733615 7.24854513 -0.17261016 10.9375 2.5 C11.948125 3.325 12.95875 4.15 14 5 C12.328125 6.17578125 12.328125 6.17578125 10 7 C7.421875 5.91796875 7.421875 5.91796875 4.75 4.1875 C3.85796875 3.62417969 2.9659375 3.06085938 2.046875 2.48046875 C1.37140625 1.99191406 0.6959375 1.50335938 0 1 C0 0.67 0 0.34 0 0 Z " fill="#0F0F0F" transform="translate(329,198)"/>
<path d="M0 0 C2.97 0.33 5.94 0.66 9 1 C9 1.99 9 2.98 9 4 C6.03 4 3.06 4 0 4 C0 2.68 0 1.36 0 0 Z " fill="#626167" transform="translate(310,252)"/>
<path d="M0 0 C1.65 0 3.3 0 5 0 C5.66 1.32 6.32 2.64 7 4 C6.34 4.66 5.68 5.32 5 6 C1.875 5.625 1.875 5.625 -1 5 C-0.67 3.35 -0.34 1.7 0 0 Z " fill="#505153" transform="translate(307,224)"/>
<path d="M0 0 C2.45933991 0.11369211 4.9167909 0.24042651 7.375 0.375 C8.07367188 0.4059375 8.77234375 0.436875 9.4921875 0.46875 C14.7734375 0.7734375 14.7734375 0.7734375 17 3 C14.72975032 3.08097324 12.45867925 3.13917704 10.1875 3.1875 C8.29064453 3.23970703 8.29064453 3.23970703 6.35546875 3.29296875 C3 3 3 3 1.05078125 1.48828125 C0.70402344 0.99714844 0.35726562 0.50601562 0 0 Z " fill="#101010" transform="translate(219,331)"/>
<path d="M0 0 C1.79244141 0.01740234 1.79244141 0.01740234 3.62109375 0.03515625 C5.41740234 0.04869141 5.41740234 0.04869141 7.25 0.0625 C8.17683594 0.07410156 9.10367188 0.08570313 10.05859375 0.09765625 C7.04909252 1.71491159 4.08755767 2.77348248 0.80859375 3.72265625 C-0.0834375 3.98304688 -0.97546875 4.2434375 -1.89453125 4.51171875 C-2.57 4.70507812 -3.24546875 4.8984375 -3.94140625 5.09765625 C-3.94140625 0.13085678 -3.94140625 0.13085678 0 0 Z " fill="#151110" transform="translate(190.94140625,251.90234375)"/>
<path d="M0 0 C0.66 0 1.32 0 2 0 C3.60725635 3.21451269 3.05748185 6.43612536 3 10 C0 9 0 9 -1.25 6.625 C-2 4 -2 4 -1 1 C-0.67 0.67 -0.34 0.34 0 0 Z " fill="#565656" transform="translate(333,207)"/>
<path d="M0 0 C2.31 0 4.62 0 7 0 C6.01 0.495 6.01 0.495 5 1 C5 1.66 5 2.32 5 3 C6.32 3.33 7.64 3.66 9 4 C4.38 4 -0.24 4 -5 4 C-3.68 3.34 -2.36 2.68 -1 2 C-0.67 1.34 -0.34 0.68 0 0 Z " fill="#515156" transform="translate(315,232)"/>
<path d="M0 0 C0.928125 0.5259375 0.928125 0.5259375 1.875 1.0625 C2.57625 1.371875 3.2775 1.68125 4 2 C4.66 1.67 5.32 1.34 6 1 C6.33 2.32 6.66 3.64 7 5 C3.52674819 6.1577506 0.63932552 6.06866652 -3 6 C-2.01 5.67 -1.02 5.34 0 5 C0 3.35 0 1.7 0 0 Z " fill="#585859" transform="translate(198,290)"/>
<path d="M0 0 C1.32 0 2.64 0 4 0 C4.66 1.65 5.32 3.3 6 5 C4.35 5.33 2.7 5.66 1 6 C-0.0625 4.125 -0.0625 4.125 -1 2 C-0.67 1.34 -0.34 0.68 0 0 Z " fill="#0A0A0A" transform="translate(245,276)"/>
<path d="M0 0 C0 0.66 0 1.32 0 2 C-5.94 2.495 -5.94 2.495 -12 3 C-12.33 2.01 -12.66 1.02 -13 0 C-11.20909747 -0.19466332 -9.41723495 -0.38051213 -7.625 -0.5625 C-6.12839844 -0.71912109 -6.12839844 -0.71912109 -4.6015625 -0.87890625 C-2 -1 -2 -1 0 0 Z " fill="#252422" transform="translate(233,250)"/>
<path d="M0 0 C2.08940868 3.13411302 2.27364412 3.97450472 2.25 7.5625 C2.25515625 8.34753906 2.2603125 9.13257813 2.265625 9.94140625 C2 12 2 12 0 14 C0 10.58900832 0.49145406 7.36911686 1 4 C0.34 4 -0.32 4 -1 4 C-1 4.66 -1 5.32 -1 6 C-1.66 5.67 -2.32 5.34 -3 5 C-2.625 3.0625 -2.625 3.0625 -2 1 C-1.34 0.67 -0.68 0.34 0 0 Z " fill="#545456" transform="translate(338,226)"/>
<path d="M0 0 C0.99 0.33 1.98 0.66 3 1 C2.67 2.98 2.34 4.96 2 7 C0.35 7.33 -1.3 7.66 -3 8 C-2.45276317 4.62537285 -1.9451 2.91765 0 0 Z " fill="#6A696C" transform="translate(303,221)"/>
<path d="M0 0 C2.64 0.33 5.28 0.66 8 1 C8.33 2.32 8.66 3.64 9 5 C4.545 4.01 4.545 4.01 0 3 C0 2.01 0 1.02 0 0 Z " fill="#5A5A5B" transform="translate(317,211)"/>
<path d="M0 0 C1.32 0 2.64 0 4 0 C4 2.64 4 5.28 4 8 C3.01 8.33 2.02 8.66 1 9 C0.67 6.03 0.34 3.06 0 0 Z " fill="#515152" transform="translate(341,255)"/>
<path d="M0 0 C1.32 0.33 2.64 0.66 4 1 C4 1.99 4 2.98 4 4 C4.66 4.33 5.32 4.66 6 5 C5.01 5.33 4.02 5.66 3 6 C2.34 6.66 1.68 7.32 1 8 C0.67 5.36 0.34 2.72 0 0 Z " fill="#6C6C6E" transform="translate(298,264)"/>
<path d="M0 0 C1.65 0.33 3.3 0.66 5 1 C5.33 2.32 5.66 3.64 6 5 C5.01 5 4.02 5 3 5 C3 4.34 3 3.68 3 3 C1.68 3 0.36 3 -1 3 C-0.67 2.01 -0.34 1.02 0 0 Z " fill="#656568" transform="translate(332,243)"/>
<path d="M0 0 C-3.08888522 2.05925681 -3.70935927 2.2390374 -7.1875 2.125 C-9.0746875 2.063125 -9.0746875 2.063125 -11 2 C-7.374967 -1.625033 -4.81746234 -1.01907857 0 0 Z " fill="#111111" transform="translate(262,332)"/>
<path d="M0 0 C0.99 0 1.98 0 3 0 C2.67 1.65 2.34 3.3 2 5 C0.35 5.33 -1.3 5.66 -3 6 C-3.66 4.68 -4.32 3.36 -5 2 C-3.68 2.33 -2.36 2.66 -1 3 C-0.67 2.01 -0.34 1.02 0 0 Z " fill="#000000" transform="translate(282,298)"/>
<path d="M0 0 C0.66 0 1.32 0 2 0 C2.66 2.31 3.32 4.62 4 7 C1 7 1 7 -1 6 C-0.67 4.02 -0.34 2.04 0 0 Z " fill="#68686A" transform="translate(298,255)"/>
<path d="M0 0 C3.3125 -0.1875 3.3125 -0.1875 7 0 C7.99 0.99 8.98 1.98 10 3 C6.7 3.33 3.4 3.66 0 4 C0 2.66666667 0 1.33333333 0 0 Z " fill="#090909" transform="translate(359,310)"/>
<path d="M0 0 C1.65 0.33 3.3 0.66 5 1 C5 1.66 5 2.32 5 3 C1.32589215 4.17571451 -2.16929183 4.07366746 -6 4 C-2.25 2 -2.25 2 0 2 C0 1.34 0 0.68 0 0 Z " fill="#161616" transform="translate(368,308)"/>
<path d="M0 0 C1.485 0.99 1.485 0.99 3 2 C4.98799818 2.70164642 6.98698517 3.37372872 9 4 C8.34 4.66 7.68 5.32 7 6 C3.70285207 5.67028521 2.3773161 5.3773161 0 3 C0 2.01 0 1.02 0 0 Z " fill="#4F4F4F" transform="translate(299,278)"/>
<path d="M0 0 C1.98 0.495 1.98 0.495 4 1 C3 4 3 4 1 6 C0.34 5.67 -0.32 5.34 -1 5 C-0.67 3.35 -0.34 1.7 0 0 Z " fill="#0F0F0F" transform="translate(253,276)"/>
<path d="M0 0 C0.33 0.99 0.66 1.98 1 3 C-0.65 3.66 -2.3 4.32 -4 5 C-4 4.34 -4 3.68 -4 3 C-4.66 3 -5.32 3 -6 3 C-6 2.34 -6 1.68 -6 1 C-4 0 -4 0 0 0 Z " fill="#49494C" transform="translate(310,219)"/>
<path d="M0 0 C1.65 1.65 3.3 3.3 5 5 C2.525 6.485 2.525 6.485 0 8 C-0.98120464 4.94736336 -0.98120464 3.05263664 0 0 Z " fill="#5A5A5C" transform="translate(301,212)"/>
<path d="M0 0 C3.3 0.33 6.6 0.66 10 1 C9.67 2.32 9.34 3.64 9 5 C6.03 4.505 6.03 4.505 3 4 C3.66 3.34 4.32 2.68 5 2 C3.35 1.67 1.7 1.34 0 1 C0 0.67 0 0.34 0 0 Z " fill="#0B0B0B" transform="translate(299,187)"/>
<path d="M0 0 C0.66 0 1.32 0 2 0 C2 2.31 2 4.62 2 7 C1.01 7 0.02 7 -1 7 C-1.33 5.35 -1.66 3.7 -2 2 C-1.34 2 -0.68 2 0 2 C0 1.34 0 0.68 0 0 Z " fill="#69696B" transform="translate(337,230)"/>
<path d="M0 0 C0.66 0.33 1.32 0.66 2 1 C2.625 3.5625 2.625 3.5625 3 6 C2.01 6.33 1.02 6.66 0 7 C-0.38133299 5.0085944 -0.71325582 3.00720923 -1 1 C-0.67 0.67 -0.34 0.34 0 0 Z " fill="#6B6B6C" transform="translate(297,212)"/>
<path d="M0 0 C0.66 0.33 1.32 0.66 2 1 C1.67 2.32 1.34 3.64 1 5 C-0.32 5.33 -1.64 5.66 -3 6 C-2.42655063 3.13275314 -2.1385485 2.1385485 0 0 Z " fill="#636265" transform="translate(308,247)"/>
<path d="M0 0 C2.31 0 4.62 0 7 0 C7 1.32 7 2.64 7 4 C4.69 3.01 2.38 2.02 0 1 C0 0.67 0 0.34 0 0 Z " fill="#222223" transform="translate(329,198)"/>
<path d="M0 0 C0.33 1.32 0.66 2.64 1 4 C2.32 4 3.64 4 5 4 C4.67 5.32 4.34 6.64 4 8 C2.0625 7.3125 2.0625 7.3125 0 6 C-0.8125 3.4375 -0.8125 3.4375 -1 1 C-0.67 0.67 -0.34 0.34 0 0 Z " fill="#434343" transform="translate(178,298)"/>
<path d="M0 0 C2.375 0.1875 2.375 0.1875 5 1 C6.3125 3.5625 6.3125 3.5625 7 6 C6.01 6.495 6.01 6.495 5 7 C4.67 6.01 4.34 5.02 4 4 C1.99983534 2.79117904 1.99983534 2.79117904 0 2 C0 1.34 0 0.68 0 0 Z " fill="#4F4F50" transform="translate(297,261)"/>
<path d="M0 0 C1.24546405 2.49092811 0.7767578 3.41080733 0 6 C-0.99 5.67 -1.98 5.34 -3 5 C-3.6875 2.9375 -3.6875 2.9375 -4 1 C-2.68 0.67 -1.36 0.34 0 0 Z " fill="#4C4B4E" transform="translate(332,224)"/>
<path d="M0 0 C1.32 0 2.64 0 4 0 C3.67 0.99 3.34 1.98 3 3 C2.01 3 1.02 3 0 3 C0 2.01 0 1.02 0 0 Z " fill="#626266" transform="translate(320,253)"/>
<path d="M0 0 C0.33 0 0.66 0 1 0 C1 2.97 1 5.94 1 9 C0.67 9 0.34 9 0 9 C0 6.03 0 3.06 0 0 Z " fill="#000000" transform="translate(180,261)"/>
<path d="M0 0 C2 1 2 1 2 1 Z " fill="#000000" transform="translate(260,297)"/>
<path d="M0 0 C2 1 2 1 2 1 Z " fill="#000000" transform="translate(246,297)"/>
<path d="" fill="#000000" transform="translate(0,0)"/>
<path d="" fill="#000000" transform="translate(0,0)"/>
</svg>
